name ./resultDataOpenSim/trcMotMarkerGrf/sub10/grf-12-04.mot
datacolumns 19
datarows 30
range 1.43200000 1.54800000
endheader

                time	     ground_force_vx	     ground_force_vy	     ground_force_vz	     ground_force_px	     ground_force_py	     ground_force_pz	   l_ground_force_vx	   l_ground_force_vy	   l_ground_force_vz	   l_ground_force_px	   l_ground_force_py	   l_ground_force_pz	     ground_torque_x	     ground_torque_y	     ground_torque_z	   l_ground_torque_x	   l_ground_torque_y	   l_ground_torque_z	
          1.43200000	        -12.01275459	        422.28531933	        -18.30923218	          0.78864595	          0.00000000	          0.06145007	          0.00000000	          0.00000000	          0.00000000	          0.00000000	          0.00000000	          0.00000000	          0.00000000	          2.80311586	          0.00000000	          0.00000000	          0.00000000	          0.00000000	
          1.43600000	         -9.94166873	        425.74447767	        -18.30914923	          0.78854972	          0.00000000	          0.06154723	          0.00000000	          0.00000000	          0.00000000	          0.00000000	          0.00000000	          0.00000000	          0.00000000	          2.91833734	          0.00000000	          0.00000000	          0.00000000	          0.00000000	
          1.44000000	         -7.41238376	        429.65419008	        -18.13110558	          0.78825920	          0.00000000	          0.06163202	          0.00000000	          0.00000000	          0.00000000	          0.00000000	          0.00000000	          0.00000000	          0.00000000	          3.00535489	          0.00000000	          0.00000000	          0.00000000	          0.00000000	
          1.44400000	         -4.49409634	        434.03044629	        -17.82376175	          0.78778297	          0.00000000	          0.06170845	          0.00000000	          0.00000000	          0.00000000	          0.00000000	          0.00000000	          0.00000000	          0.00000000	          3.06871380	          0.00000000	          0.00000000	          0.00000000	          0.00000000	
          1.44800000	         -1.31591413	        438.91764751	        -17.47331505	          0.78714672	          0.00000000	          0.06178493	          0.00000000	          0.00000000	          0.00000000	          0.00000000	          0.00000000	          0.00000000	          0.00000000	          3.11926907	          0.00000000	          0.00000000	          0.00000000	          0.00000000	
          1.45200000	          1.97018692	        444.37244593	        -17.19330956	          0.78640697	          0.00000000	          0.06187311	          0.00000000	          0.00000000	          0.00000000	          0.00000000	          0.00000000	          0.00000000	          0.00000000	          3.17041111	          0.00000000	          0.00000000	          0.00000000	          0.00000000	
          1.45600000	          5.23190593	        450.42969783	        -17.10941736	          0.78564458	          0.00000000	          0.06198014	          0.00000000	          0.00000000	          0.00000000	          0.00000000	          0.00000000	          0.00000000	          0.00000000	          3.23367225	          0.00000000	          0.00000000	          0.00000000	          0.00000000	
          1.46000000	          8.39452604	        457.08609637	        -17.33525210	          0.78491986	          0.00000000	          0.06210540	          0.00000000	          0.00000000	          0.00000000	          0.00000000	          0.00000000	          0.00000000	          0.00000000	          3.31579001	          0.00000000	          0.00000000	          0.00000000	          0.00000000	
          1.46400000	         11.45450432	        464.30451230	        -17.94382694	          0.78426202	          0.00000000	          0.06224653	          0.00000000	          0.00000000	          0.00000000	          0.00000000	          0.00000000	          0.00000000	          0.00000000	          3.41819437	          0.00000000	          0.00000000	          0.00000000	          0.00000000	
          1.46800000	         14.45717727	        472.01939318	        -18.94544337	          0.78369029	          0.00000000	          0.06239862	          0.00000000	          0.00000000	          0.00000000	          0.00000000	          0.00000000	          0.00000000	          0.00000000	          3.53831384	          0.00000000	          0.00000000	          0.00000000	          0.00000000	
          1.47200000	         17.45528243	        480.14668445	        -20.28238797	          0.78322651	          0.00000000	          0.06255162	          0.00000000	          0.00000000	          0.00000000	          0.00000000	          0.00000000	          0.00000000	          0.00000000	          3.67123102	          0.00000000	          0.00000000	          0.00000000	          0.00000000	
          1.47600000	         20.47980113	        488.60800301	        -21.84408678	          0.78290776	          0.00000000	          0.06269518	          0.00000000	          0.00000000	          0.00000000	          0.00000000	          0.00000000	          0.00000000	          0.00000000	          3.81060613	          0.00000000	          0.00000000	          0.00000000	          0.00000000	
          1.48000000	         23.52971802	        497.34713363	        -23.49722272	          0.78276462	          0.00000000	          0.06281872	          0.00000000	          0.00000000	          0.00000000	          0.00000000	          0.00000000	          0.00000000	          0.00000000	          3.94892918	          0.00000000	          0.00000000	          0.00000000	          0.00000000	
          1.48400000	         26.56833098	        506.31941813	        -25.11937902	          0.78279838	          0.00000000	          0.06291197	          0.00000000	          0.00000000	          0.00000000	          0.00000000	          0.00000000	          0.00000000	          0.00000000	          4.07801606	          0.00000000	          0.00000000	          0.00000000	          0.00000000	
          1.48800000	         29.52478605	        515.47483302	        -26.62269785	          0.78300843	          0.00000000	          0.06297195	          0.00000000	          0.00000000	          0.00000000	          0.00000000	          0.00000000	          0.00000000	          0.00000000	          4.19050113	          0.00000000	          0.00000000	          0.00000000	          0.00000000	
          1.49200000	         32.30686610	        524.76385345	        -27.96169345	          0.78339596	          0.00000000	          0.06300336	          0.00000000	          0.00000000	          0.00000000	          0.00000000	          0.00000000	          0.00000000	          0.00000000	          4.28206608	          0.00000000	          0.00000000	          0.00000000	          0.00000000	
          1.49600000	         34.82509205	        534.15557351	        -29.12858230	          0.78396140	          0.00000000	          0.06301097	          0.00000000	          0.00000000	          0.00000000	          0.00000000	          0.00000000	          0.00000000	          0.00000000	          4.35319240	          0.00000000	          0.00000000	          0.00000000	          0.00000000	
          1.50000000	         37.01669433	        543.63339745	        -30.14235665	          0.78470689	          0.00000000	          0.06299993	          0.00000000	          0.00000000	          0.00000000	          0.00000000	          0.00000000	          0.00000000	          0.00000000	          4.40916740	          0.00000000	          0.00000000	          0.00000000	          0.00000000	
          1.50400000	         38.86423577	        553.17269788	        -31.04365455	          0.78563084	          0.00000000	          0.06297718	          0.00000000	          0.00000000	          0.00000000	          0.00000000	          0.00000000	          0.00000000	          0.00000000	          4.45802817	          0.00000000	          0.00000000	          0.00000000	          0.00000000	
          1.50800000	         40.41461628	        562.73278495	        -31.89695647	          0.78670554	          0.00000000	          0.06295092	          0.00000000	          0.00000000	          0.00000000	          0.00000000	          0.00000000	          0.00000000	          0.00000000	          4.50743276	          0.00000000	          0.00000000	          0.00000000	          0.00000000	
          1.51200000	         41.78617394	        572.26998304	        -32.78492582	          0.78790856	          0.00000000	          0.06292502	          0.00000000	          0.00000000	          0.00000000	          0.00000000	          0.00000000	          0.00000000	          0.00000000	          4.56209917	          0.00000000	          0.00000000	          0.00000000	          0.00000000	
          1.51600000	         43.14742817	        581.75294257	        -33.79086636	          0.78919595	          0.00000000	          0.06289657	          0.00000000	          0.00000000	          0.00000000	          0.00000000	          0.00000000	          0.00000000	          0.00000000	          4.62294304	          0.00000000	          0.00000000	          0.00000000	          0.00000000	
          1.52000000	         44.67506123	        591.16151856	        -34.97806291	          0.79053616	          0.00000000	          0.06286741	          0.00000000	          0.00000000	          0.00000000	          0.00000000	          0.00000000	          0.00000000	          0.00000000	          4.68783974	          0.00000000	          0.00000000	          0.00000000	          0.00000000	
          1.52400000	         46.51215399	        600.47765662	        -36.37598882	          0.79190643	          0.00000000	          0.06283781	          0.00000000	          0.00000000	          0.00000000	          0.00000000	          0.00000000	          0.00000000	          0.00000000	          4.75300159	          0.00000000	          0.00000000	          0.00000000	          0.00000000	
          1.52800000	         48.74078822	        609.68819881	        -37.98068955	          0.79327863	          0.00000000	          0.06280301	          0.00000000	          0.00000000	          0.00000000	          0.00000000	          0.00000000	          0.00000000	          0.00000000	          4.81393534	          0.00000000	          0.00000000	          0.00000000	          0.00000000	
          1.53200000	         51.36925343	        618.79845938	        -39.76540975	          0.79464089	          0.00000000	          0.06276008	          0.00000000	          0.00000000	          0.00000000	          0.00000000	          0.00000000	          0.00000000	          0.00000000	          4.86568398	          0.00000000	          0.00000000	          0.00000000	          0.00000000	
          1.53600000	         54.33455589	        627.84150704	        -41.69251230	          0.79599028	          0.00000000	          0.06270511	          0.00000000	          0.00000000	          0.00000000	          0.00000000	          0.00000000	          0.00000000	          0.00000000	          4.90285540	          0.00000000	          0.00000000	          0.00000000	          0.00000000	
          1.54000000	         57.52494175	        636.87527867	        -43.72164784	          0.79732298	          0.00000000	          0.06263254	          0.00000000	          0.00000000	          0.00000000	          0.00000000	          0.00000000	          0.00000000	          0.00000000	          4.92017034	          0.00000000	          0.00000000	          0.00000000	          0.00000000	
          1.54400000	         60.81619923	        645.97945480	        -45.81215507	          0.79863793	          0.00000000	          0.06253859	          0.00000000	          0.00000000	          0.00000000	          0.00000000	          0.00000000	          0.00000000	          0.00000000	          4.91380705	          0.00000000	          0.00000000	          0.00000000	          0.00000000	
          1.54800000	         64.10247853	        655.25525157	        -47.91979906	          0.79992753	          0.00000000	          0.06241642	          0.00000000	          0.00000000	          0.00000000	          0.00000000	          0.00000000	          0.00000000	          0.00000000	          4.88308659	          0.00000000	          0.00000000	          0.00000000	          0.00000000	
